<svg version="1.1" id="Layer_1" xmlns="http://www.w3.org/2000/svg" xmlns:xlink="http://www.w3.org/1999/xlink" x="0px" y="0px"
	 width="100%" viewBox="0 0 227 222" enable-background="new 0 0 227 222" xml:space="preserve">
<path fill="#FFFFFF" opacity="1.000000" stroke="none" 
	d="
M103.000000,1.000000 
	C144.611359,1.000000 186.222733,1.000000 228.000000,1.000000 
	C228.000000,69.020805 228.000000,137.041748 227.685760,205.370010 
	C225.717667,203.067673 224.507843,199.989014 222.332901,197.929688 
	C213.029327,189.120651 203.437836,180.615829 193.957657,171.993134 
	C185.024796,163.868301 176.099838,155.734772 167.155167,147.590271 
	C177.472748,133.291428 183.654007,117.786217 184.856781,100.667389 
	C188.058685,55.094906 157.316467,13.676152 112.955917,3.286459 
	C109.640625,2.509984 106.318794,1.761498 103.000000,1.000000 
z"/>
<path fill="#818181" opacity="1.000000" stroke="none" 
	d="
M102.600006,1.000000 
	C106.318794,1.761498 109.640625,2.509984 112.955917,3.286459 
	C157.316467,13.676152 188.058685,55.094906 184.856781,100.667389 
	C183.654007,117.786217 177.472748,133.291428 167.155167,147.590271 
	C176.099838,155.734772 185.024796,163.868301 193.957657,171.993134 
	C203.437836,180.615829 213.029327,189.120651 222.332901,197.929688 
	C224.507843,199.989014 225.717667,203.067673 227.685760,205.838669 
	C228.000000,208.041672 228.000000,210.083328 227.698944,212.722168 
	C225.597504,218.335220 221.670486,221.066879 217.000000,223.000000 
	C214.958328,223.000000 212.916672,223.000000 210.296341,222.689499 
	C207.793732,221.085907 205.693863,219.990875 203.976379,218.465332 
	C196.626694,211.937027 189.392639,205.278625 182.111038,198.673584 
	C170.651031,188.278397 159.186707,177.887985 147.611755,167.393600 
	C132.254562,178.683105 115.324501,185.096832 96.521660,185.842087 
	C55.521061,187.467163 16.539032,159.192627 5.001348,119.682678 
	C3.579638,114.814133 2.329595,109.895447 1.000000,105.000000 
	C1.000000,97.645744 1.000000,90.291496 1.333894,82.267906 
	C8.929233,42.752937 31.055347,16.832018 68.798927,4.595531 
	C73.433998,3.092836 78.261612,2.184026 83.000000,1.000000 
	C84.388893,1.000000 85.777779,1.000000 87.724304,1.233248 
	C88.854630,1.310998 89.427315,1.155499 90.000000,1.000000 
	C91.714355,1.000000 93.428719,1.000000 95.747131,1.259531 
	C97.234123,1.346042 98.117058,1.173021 99.000000,1.000000 
	C100.066673,1.000000 101.133339,1.000000 102.600006,1.000000 
M171.119904,96.431801 
	C170.730301,90.463837 170.916931,84.391563 169.858429,78.544693 
	C162.505020,37.926582 126.667061,11.085608 85.301529,15.386655 
	C47.086445,19.360130 21.871246,44.509590 15.670075,82.610161 
	C10.076688,116.976463 29.692791,152.669540 61.881092,165.682480 
	C69.933632,168.937927 78.543892,171.253464 87.117928,172.618423 
	C92.471344,173.470673 98.251961,171.852432 103.814995,171.140564 
	C141.750046,166.286377 169.731750,135.582565 171.119904,96.431801 
z"/>
<path fill="#FFFFFF" opacity="1.000000" stroke="none" 
	d="
M1.000000,105.468658 
	C2.329595,109.895447 3.579638,114.814133 5.001348,119.682678 
	C16.539032,159.192627 55.521061,187.467163 96.521660,185.842087 
	C115.324501,185.096832 132.254562,178.683105 147.611755,167.393600 
	C159.186707,177.887985 170.651031,188.278397 182.111038,198.673584 
	C189.392639,205.278625 196.626694,211.937027 203.976379,218.465332 
	C205.693863,219.990875 207.793732,221.085907 209.858841,222.689499 
	C140.426651,223.000000 70.853294,223.000000 1.000000,223.000000 
	C1.000000,183.979553 1.000000,144.958435 1.000000,105.468658 
z"/>
<path fill="#FEFEFE" opacity="1.000000" stroke="none" 
	d="
M82.531342,1.000000 
	C78.261612,2.184026 73.433998,3.092836 68.798927,4.595531 
	C31.055347,16.832018 8.929233,42.752937 1.333894,81.799286 
	C1.000000,55.072655 1.000000,28.145313 1.000000,1.000000 
	C28.020504,1.000000 55.041592,1.000000 82.531342,1.000000 
z"/>
<path fill="#FBFBFB" opacity="1.000000" stroke="none" 
	d="
M217.482956,223.000000 
	C221.670486,221.066879 225.597504,218.335220 227.698944,213.159668 
	C228.000000,216.257568 228.000000,219.515152 228.000000,223.000000 
	C224.657242,223.000000 221.311584,223.000000 217.482956,223.000000 
z"/>
<path fill="#989898" opacity="1.000000" stroke="none" 
	d="
M98.625000,1.000000 
	C98.117058,1.173021 97.234123,1.346042 96.175591,1.259531 
	C96.750000,1.000000 97.500000,1.000000 98.625000,1.000000 
z"/>
<path fill="#989898" opacity="1.000000" stroke="none" 
	d="
M89.666672,1.000000 
	C89.427315,1.155499 88.854630,1.310998 88.140976,1.233248 
	C88.444443,1.000000 88.888893,1.000000 89.666672,1.000000 
z"/>
<path fill="#FFFFFF" opacity="1.000000" stroke="none" 
	d="
M171.100006,96.916397 
	C169.731750,135.582565 141.750046,166.286377 103.814995,171.140564 
	C98.251961,171.852432 92.471344,173.470673 87.117928,172.618423 
	C78.543892,171.253464 69.933632,168.937927 61.881092,165.682480 
	C29.692791,152.669540 10.076688,116.976463 15.670075,82.610161 
	C21.871246,44.509590 47.086445,19.360130 85.301529,15.386655 
	C126.667061,11.085608 162.505020,37.926582 169.858429,78.544693 
	C170.916931,84.391563 170.730301,90.463837 171.100006,96.916397 
z"/>
</svg>